<?xml version="1.0" encoding="utf-8"?>
<!-- Svg Vector Icons : http://www.onlinewebfonts.com/icon -->
<!DOCTYPE svg PUBLIC "-//W3C//DTD SVG 1.1//EN" "http://www.w3.org/Graphics/SVG/1.1/DTD/svg11.dtd">
<svg version="1.1" xmlns="http://www.w3.org/2000/svg" xmlns:xlink="http://www.w3.org/1999/xlink" x="0px" y="0px" viewBox="0 0 1000 1000" enable-background="new 0 0 1000 1000" xml:space="preserve">
<metadata> Svg Vector Icons : http://www.onlinewebfonts.com/icon </metadata>
<g><g><g><path d="M510.9,243.4c-23.8,0-43.3,38.5-43.3,86.2c0,47.5,19.4,86.1,43.3,86.1c23.7,0,43.1-38.7,43.1-86.1C553.9,281.9,534.5,243.4,510.9,243.4z"/><path d="M367.1,124.5c86.9,0,122,6.6,122,71.6h43.3c0-114.7-95.5-114.7-165.3-114.7c-86.7,0-122-6.4-122-71.4H202C202,124.5,297.5,124.5,367.1,124.5z"/><path d="M590.5,196.1c4.1,12.4,6.5,25.8,6.5,39.8V423c0,52.5-30.6,96.2-70.7,105.6c0.1,0.6,0.4,1.1,0.4,2v150.3c0,8.7-7.1,15.9-16,15.9c-8.7,0-15.9-7.2-15.9-15.9V530.6c0-0.8,0.4-1.3,0.4-2c-40.1-9.3-70.7-53-70.7-105.6V235.9c0-14,2.4-27.4,6.5-39.8C312.3,227.4,223.6,335,223.6,463.3v249.2C223.5,865.1,348.4,990,501,990h19.6C673.2,990,798,865.1,798,712.5V463.3C798,335,709.2,227.4,590.5,196.1z"/></g></g><g></g><g></g><g></g><g></g><g></g><g></g><g></g><g></g><g></g><g></g><g></g><g></g><g></g><g></g><g></g></g>
</svg>