<?xml version="1.0" standalone="no"?>
<!DOCTYPE svg PUBLIC "-//W3C//DTD SVG 20010904//EN"
 "http://www.w3.org/TR/2001/REC-SVG-20010904/DTD/svg10.dtd">
<svg version="1.0" xmlns="http://www.w3.org/2000/svg"
 width="635.000000pt" height="545.000000pt" viewBox="0 0 635.000000 545.000000"
 preserveAspectRatio="xMidYMid meet">
<metadata>
Created by potrace 1.14, written by Peter Selinger 2001-2017
</metadata>
<g transform="translate(0.000000,545.000000) scale(0.100000,-0.100000)"
fill="#000000" stroke="none">
<path d="M4840 5341 c-109 -58 -154 -168 -111 -267 l22 -49 -32 -25 c-18 -14
-64 -51 -102 -82 -38 -32 -70 -58 -70 -58 -1 0 -23 7 -49 15 -74 22 -204 29
-303 16 -146 -19 -284 -61 -481 -147 -5 -3 -16 18 -23 45 -17 67 -64 135 -107
156 -64 30 -133 -13 -175 -112 -24 -57 -49 -180 -49 -245 0 -29 -4 -58 -8 -63
-4 -6 -47 -44 -97 -85 -49 -41 -134 -117 -188 -169 l-98 -94 -111 -8 c-337
-25 -696 -139 -955 -305 -29 -19 -56 -34 -60 -34 -9 0 4 138 17 183 9 31 15
37 39 37 68 0 148 99 137 170 -3 19 -15 47 -26 62 -26 35 -26 35 11 53 17 9
66 50 108 91 73 69 81 74 122 74 56 0 104 25 143 73 25 31 31 49 34 101 2 36
-1 81 -8 102 -12 36 -12 39 16 61 22 18 37 23 63 19 93 -14 160 79 117 162
-13 26 -37 42 -79 56 -47 15 -127 -51 -127 -105 0 -19 -9 -34 -30 -49 l-31
-22 -38 26 c-104 73 -231 56 -286 -38 -14 -24 -25 -52 -25 -63 0 -16 -17 -29
-73 -55 -223 -107 -372 -318 -310 -438 23 -44 76 -80 119 -80 l33 0 -6 -57
c-5 -54 -9 -62 -62 -116 -72 -75 -167 -123 -274 -138 -43 -6 -81 -9 -84 -5 -4
3 5 19 19 34 73 79 157 244 190 374 16 66 20 103 16 188 -4 93 -8 115 -36 173
-55 119 -159 197 -342 257 -36 11 -157 43 -270 71 -214 52 -328 86 -419 126
-67 30 -175 100 -219 143 -18 18 -35 30 -38 28 -2 -3 3 -34 12 -69 23 -84 22
-266 0 -374 -10 -44 -36 -143 -58 -220 -95 -328 -101 -353 -102 -475 -1 -106
1 -120 27 -175 15 -33 45 -77 65 -98 92 -95 292 -165 527 -185 l89 -7 -84 -49
c-99 -57 -225 -178 -258 -247 -12 -25 -22 -61 -22 -81 0 -32 -4 -37 -40 -52
-38 -15 -54 -36 -27 -36 20 0 136 -58 183 -92 28 -20 44 -39 44 -52 0 -49 76
-105 123 -90 41 12 67 45 67 83 -1 46 -26 79 -75 95 -60 21 -81 76 -51 135 22
42 90 83 195 117 l96 32 74 -152 c42 -83 75 -154 76 -158 0 -4 -74 -56 -165
-116 -187 -122 -395 -277 -550 -409 l-105 -89 0 -234 c1 -250 12 -348 61 -560
34 -143 81 -296 97 -307 6 -5 138 -42 292 -82 l280 -71 56 61 56 61 39 -64
c20 -34 57 -90 80 -123 l43 -60 -29 -17 c-49 -28 -58 -102 -20 -158 17 -24 17
-28 -4 -84 -11 -32 -25 -57 -31 -55 -5 1 -46 19 -90 39 -134 62 -120 72 -134
-87 -12 -130 -15 -141 -46 -188 -93 -138 -112 -245 -62 -348 33 -67 100 -130
175 -165 45 -21 72 -27 127 -27 96 1 171 35 247 116 56 60 57 61 175 93 65 18
131 36 146 40 l28 7 -65 78 -65 79 80 36 c62 29 84 34 99 26 43 -23 109 -8
141 32 16 20 16 20 65 -5 120 -60 336 -127 504 -156 186 -32 461 -41 648 -20
572 62 1085 338 1457 783 108 130 228 331 280 469 l18 48 47 -6 c46 -6 48 -5
84 36 20 23 36 38 37 33 10 -128 35 -365 39 -365 3 -1 57 2 120 5 96 6 144 15
290 58 96 27 178 53 182 57 4 3 -13 130 -37 281 -25 151 -45 280 -45 287 0 6
33 37 73 68 39 32 75 63 80 70 16 28 46 248 52 372 l5 130 -117 119 c-146 148
-251 240 -400 351 l-116 87 -47 -17 -47 -17 -84 38 c-46 22 -127 56 -179 77
-52 21 -99 42 -103 45 -5 4 11 10 35 14 86 14 369 87 489 127 235 77 406 180
425 254 6 23 11 25 59 25 28 0 80 -3 114 -6 52 -6 61 -10 61 -26 0 -30 32 -77
66 -99 127 -78 292 30 229 151 -31 59 -112 97 -182 84 -20 -4 -52 -21 -72 -39
-35 -31 -38 -32 -96 -24 -33 4 -85 8 -117 8 -53 1 -57 3 -66 30 -16 45 -76
105 -139 139 -132 69 -313 102 -569 102 l-171 0 9 48 c5 26 9 95 10 154 l1
106 91 35 c97 37 228 72 312 83 50 6 51 6 72 -28 33 -53 110 -90 186 -90 140
0 246 89 246 207 0 91 -61 160 -161 185 -57 14 -133 1 -194 -33 -50 -28 -105
-108 -105 -151 l0 -33 -112 -22 c-62 -12 -158 -38 -213 -57 -55 -19 -107 -37
-116 -40 -11 -4 -19 6 -28 38 -31 101 -91 183 -177 237 -22 14 -42 29 -45 32
-2 3 36 39 85 78 l88 73 41 -18 c160 -73 345 70 313 242 -8 42 -68 112 -113
131 -47 19 -141 16 -183 -6z m186 -52 c59 -36 80 -118 48 -186 -16 -32 -71
-83 -90 -83 -5 0 6 10 24 21 51 33 84 117 62 159 -10 19 -12 18 -43 -21 -50
-65 -77 -81 -137 -81 -29 1 -62 8 -76 16 -30 20 -34 20 -34 -3 0 -29 47 -80
83 -90 18 -5 24 -10 14 -10 -60 -3 -125 89 -112 157 10 52 34 90 74 114 64 40
128 42 187 7z m-4476 -303 c85 -62 182 -139 214 -170 33 -31 66 -54 73 -52 7
3 12 2 12 -2 -5 -32 3 -35 26 -9 14 15 29 27 32 27 4 0 -3 -10 -14 -22 -26
-29 -57 -90 -74 -146 l-13 -44 -45 9 c-80 14 -251 9 -313 -10 -72 -22 -134
-69 -173 -132 -26 -42 -30 -58 -30 -119 1 -57 6 -81 27 -122 31 -59 136 -161
199 -193 36 -18 39 -21 14 -16 -16 4 -51 22 -78 41 -26 19 -51 32 -56 30 -4
-3 -25 12 -46 34 -21 22 -42 37 -46 34 -14 -8 -22 17 -9 29 7 7 10 7 7 2 -3
-6 3 -16 14 -23 26 -16 24 -12 -13 49 -28 44 -33 63 -37 127 -4 96 11 166 60
270 43 91 79 266 79 383 0 83 10 139 24 139 6 0 81 -51 166 -114z m1702 -60
c36 -16 65 -42 55 -52 -3 -3 -16 1 -29 10 -39 28 -95 39 -133 26 -110 -36
-123 -180 -26 -280 76 -79 168 -87 225 -20 27 33 42 102 32 147 -6 27 -6 27 9
9 9 -12 15 -40 15 -70 0 -210 -260 -225 -356 -21 -78 164 50 317 208 251z
m2248 -102 c93 -28 210 -98 210 -126 0 -6 -10 -3 -22 8 l-23 19 19 -22 c10
-12 23 -21 29 -20 15 3 57 -75 73 -136 28 -104 15 -322 -30 -491 -17 -67 -21
-73 -30 -49 -4 9 -4 14 1 10 16 -17 54 188 60 329 5 127 3 149 -16 210 -11 38
-30 80 -42 94 l-21 25 21 -36 c15 -27 21 -53 21 -100 0 -42 -3 -59 -9 -50 -6
10 -11 -12 -14 -65 -8 -141 -70 -353 -146 -499 -11 -22 -32 -66 -45 -97 -14
-32 -30 -58 -36 -58 -6 0 -8 -4 -5 -10 7 -11 -41 -60 -59 -60 -5 0 10 -21 34
-46 29 -30 12 -19 -45 30 -348 299 -772 466 -1253 492 l-123 7 48 50 c67 69
235 213 315 270 233 167 523 297 738 332 105 18 274 12 350 -11z m-3225 -31
c51 -27 79 -57 104 -113 26 -56 27 -178 3 -264 l-17 -59 -145 -47 c-217 -70
-348 -135 -514 -254 l-78 -57 -47 16 c-112 37 -217 119 -257 200 -72 148 26
287 223 315 65 9 195 -3 286 -25 23 -6 24 -3 30 45 13 110 77 202 172 247 42
20 61 23 125 20 50 -2 88 -11 115 -24z m4365 7 c94 -48 93 -182 -2 -240 -18
-11 -37 -20 -43 -20 -5 1 7 10 28 21 21 11 47 34 57 52 34 55 23 138 -22 166
-26 16 -36 6 -15 -17 10 -10 17 -26 17 -35 0 -26 -48 -74 -95 -97 -39 -19 -44
-19 -79 -5 -21 9 -35 11 -31 6 4 -7 -2 -8 -16 -3 -12 5 -24 17 -25 27 -1 10
-8 21 -14 25 -7 4 -11 10 -11 14 1 3 1 16 1 29 -1 21 -1 22 -15 3 -23 -31 -17
-7 7 26 46 65 177 89 258 48z m-3623 -129 l31 -70 -35 -32 c-28 -25 -37 -29
-44 -18 -7 11 -9 11 -9 1 0 -7 12 -29 26 -48 37 -47 27 -64 -38 -64 -52 -1
-54 -2 -80 -45 -15 -25 -32 -45 -37 -45 -6 0 -20 18 -31 39 -11 22 -25 43 -31
47 -8 5 -8 1 0 -13 7 -15 6 -25 -6 -43 -13 -18 -22 -21 -54 -17 -40 5 -50 -6
-29 -31 5 -7 2 -5 -8 3 -27 24 -22 102 10 156 38 64 93 125 146 161 48 33 143
87 153 88 3 0 19 -31 36 -69z m-621 -364 c-97 -317 -261 -442 -538 -410 -117
14 -239 43 -231 56 3 5 -4 6 -17 2 -16 -5 -20 -4 -15 5 5 9 1 10 -15 5 -15 -5
-20 -4 -16 4 4 6 2 11 -5 11 -7 0 -10 2 -7 5 3 3 25 -2 49 -10 107 -39 215
-58 324 -59 105 -1 113 0 177 32 77 38 139 101 198 202 42 73 110 221 110 241
0 7 3 10 6 6 3 -3 -6 -43 -20 -90z m-156 -94 l30 -65 -30 -43 c-101 -147 -239
-191 -459 -145 -58 11 -109 24 -114 27 -8 5 144 123 159 123 3 0 18 8 32 18
74 52 326 165 345 155 4 -3 21 -34 37 -70z m1948 -199 c20 -24 42 -44 48 -44
7 0 14 -7 18 -15 3 -8 11 -15 18 -14 10 0 10 2 1 6 -19 7 -16 31 6 43 31 16
84 12 140 -12 36 -15 48 -24 39 -30 -10 -6 -7 -10 9 -14 13 -4 20 -11 16 -18
-4 -8 -2 -7 7 1 7 6 18 9 25 7 6 -3 18 2 25 11 14 17 106 21 130 5 13 -9 12
-13 -9 -30 -13 -11 -36 -20 -52 -20 -15 0 -30 -4 -34 -9 -3 -6 -18 -6 -38 1
-66 20 -70 18 -10 -6 105 -42 160 -82 174 -124 13 -41 29 -64 29 -42 0 8 -11
34 -25 58 -27 48 -20 55 15 15 l23 -27 11 24 c13 31 25 40 51 39 17 -1 17 -2
3 -6 -33 -8 -18 -21 32 -28 39 -5 50 -11 50 -25 0 -11 5 -22 11 -25 19 -12 21
3 6 34 -16 32 -10 40 11 19 7 -7 12 -21 12 -33 0 -12 6 -27 13 -34 7 -8 7 -11
1 -8 -7 4 -17 0 -24 -8 -10 -12 -9 -15 4 -15 9 0 16 -7 16 -16 0 -8 4 -13 8
-10 4 2 14 0 22 -5 11 -8 4 -9 -25 -5 -210 31 -569 71 -711 79 l-71 4 -7 -111
c-10 -181 -6 -384 9 -491 19 -129 19 -145 -1 -145 -8 0 -12 5 -8 11 4 8 0 8
-15 0 -15 -8 -21 -9 -21 -1 0 6 -4 8 -10 5 -5 -3 -10 -2 -10 3 0 5 -11 8 -24
7 -22 -3 -33 16 -135 229 -61 127 -131 271 -155 320 l-44 89 29 37 c41 51 50
124 19 163 -12 15 -39 37 -61 47 -47 24 -136 39 -125 22 5 -8 -1 -12 -14 -12
-12 0 -18 5 -15 10 4 6 -16 10 -52 10 -53 -1 -56 -2 -38 -15 24 -19 25 -63 1
-141 -22 -75 -43 -105 -56 -84 -8 12 -13 11 -39 -8 -17 -12 -37 -22 -46 -22
-24 0 -17 -20 8 -21 12 -1 2 -5 -23 -10 -25 -5 -49 -7 -55 -5 -5 3 0 5 13 5
12 1 22 7 22 15 0 15 -24 28 -34 19 -15 -15 -79 -13 -97 3 -15 14 -19 14 -19
3 0 -8 -10 -20 -22 -28 -13 -7 -20 -10 -16 -6 4 5 3 14 -3 21 -14 17 -3 48 13
38 7 -4 -6 13 -29 37 l-42 43 -27 -24 c-88 -82 -110 -168 -57 -230 28 -34 99
-70 138 -70 l23 0 -16 -60 c-16 -59 -17 -59 -39 -45 -27 18 -36 19 -27 3 5 -9
4 -10 -4 -3 -6 6 -12 16 -14 24 -2 7 -12 23 -23 36 -11 12 -37 49 -57 83 -29
49 -42 62 -61 62 -23 0 -24 3 -20 48 12 116 97 216 253 296 105 54 194 82 310
97 150 19 305 -13 373 -78 22 -22 37 -27 82 -28 58 -1 72 9 29 19 -14 4 -37
19 -51 34 -13 14 -39 31 -56 37 -45 14 -42 39 6 43 20 2 35 7 32 12 -8 14 16
23 28 11 8 -8 8 -14 -1 -23 -7 -7 -12 -16 -12 -20 0 -4 9 1 21 13 20 20 66 23
62 3 -4 -20 42 -9 47 11 8 26 56 29 52 3 -2 -12 5 -9 26 12 37 37 62 31 110
-26z m2127 15 c58 -16 105 -68 105 -114 0 -111 -206 -163 -299 -76 -108 101
30 235 194 190z m-438 -94 c24 -7 59 -25 78 -40 97 -73 -12 -156 -206 -159
-77 -1 -90 2 -103 19 -41 53 -26 153 27 186 27 17 42 19 96 14 35 -4 84 -13
108 -20z m-3208 -31 l33 -45 -27 -29 c-15 -16 -59 -45 -97 -65 l-69 -36 44
-62 c24 -34 45 -69 45 -77 1 -8 6 -40 11 -70 5 -30 6 -59 3 -64 -3 -5 2 -7 11
-3 10 3 17 4 17 2 0 -7 -192 -96 -197 -91 -23 22 -83 351 -83 451 l0 72 68 5
c39 3 92 16 127 30 33 14 65 26 71 27 6 0 25 -20 43 -45z m-689 -270 c61 -84
228 -261 300 -319 19 -16 30 -30 25 -32 -6 -2 -42 -21 -80 -43 -53 -31 -70
-38 -77 -28 -17 24 -134 263 -146 296 -6 17 -15 32 -20 32 -27 0 -190 -54
-241 -80 -63 -31 -116 -78 -126 -110 -5 -15 -15 -20 -43 -20 -20 0 -47 -3 -59
-6 -20 -6 -23 -3 -23 25 0 98 148 243 342 336 40 19 75 35 79 35 4 0 35 -39
69 -86z m2500 31 c229 -23 479 -61 709 -108 l204 -42 -2 -75 c-1 -41 -6 -126
-11 -189 -9 -112 -11 -118 -72 -247 -35 -73 -65 -133 -68 -133 -3 0 -18 17
-35 37 -25 32 -26 34 -4 15 14 -13 28 -23 31 -23 3 0 18 30 33 68 14 37 39 91
55 120 19 36 25 54 17 57 -20 7 -475 85 -493 85 -9 0 60 -79 167 -191 101
-105 217 -227 257 -270 l74 -79 -15 -214 -14 -213 -118 -149 c-65 -82 -123
-155 -129 -162 -10 -10 -88 -8 -401 8 -214 11 -404 20 -422 20 l-33 0 0 143
c0 124 -8 300 -24 521 l-4 59 316 -6 317 -5 -45 41 c-47 44 -451 394 -501 435
l-29 23 5 -28 c3 -15 12 -86 20 -158 14 -124 16 -131 45 -157 17 -16 37 -28
45 -28 8 0 15 -4 15 -8 0 -9 55 -44 85 -54 18 -6 19 -6 1 -7 -27 -1 -187 99
-197 124 -4 11 -20 103 -34 205 -20 150 -25 224 -25 391 0 113 3 209 7 213 4
3 32 4 62 1 31 -3 126 -12 211 -20z m-559 -490 l219 -459 11 -169 c6 -97 7
-173 2 -178 -5 -5 -80 -27 -168 -50 -88 -23 -164 -45 -169 -50 -6 -5 5 -53 26
-119 26 -80 32 -110 23 -110 -9 0 -29 50 -55 130 -22 71 -70 203 -107 292 -36
90 -98 243 -138 341 -40 98 -75 181 -79 185 -4 3 -3 -6 3 -20 6 -15 7 -30 2
-32 -4 -3 -13 11 -19 31 -9 29 -9 39 1 45 8 5 7 8 -5 8 -10 0 -18 -3 -18 -6 0
-3 14 -53 32 -110 l31 -103 -68 -273 c-38 -150 -69 -280 -68 -288 0 -8 25 -70
56 -137 39 -88 51 -123 41 -123 -8 0 -26 24 -40 53 -29 59 -38 62 -120 47 -59
-10 -110 0 -146 30 -18 15 -20 22 -10 28 8 6 -3 9 -31 8 -25 -1 -43 -5 -40
-10 3 -5 -6 -7 -20 -4 -16 3 -24 1 -20 -5 4 -6 -4 -7 -21 -3 -20 5 -26 3 -21
-5 5 -8 1 -9 -14 -4 -13 4 -21 2 -21 -5 0 -7 -7 -9 -15 -6 -24 9 -11 -7 100
-133 55 -61 100 -115 101 -119 3 -22 19 -45 38 -52 16 -7 17 -9 4 -9 -9 -1
-78 71 -161 165 l-144 167 22 101 c12 55 82 376 155 711 73 336 135 613 139
617 6 7 469 87 485 84 5 -1 107 -209 227 -461z m-929 167 c49 -84 86 -157 82
-163 -6 -10 -102 130 -145 211 l-19 35 0 -90 c0 -50 -3 -148 -7 -220 -3 -71 0
-251 7 -398 l12 -269 -37 -173 -37 -174 123 -143 c67 -79 131 -152 141 -163
18 -21 17 -21 -119 -57 l-137 -36 -173 146 c-95 80 -173 151 -173 158 0 26
-40 450 -45 473 -6 30 -9 33 -26 26 -14 -5 -8 -117 26 -481 l6 -61 160 -134
c87 -74 159 -136 159 -139 0 -3 -58 -20 -129 -39 l-129 -33 -197 118 c-108 66
-200 126 -205 134 -13 26 -69 347 -90 521 -21 170 -40 538 -32 620 l4 47 151
90 c84 49 161 95 173 100 20 11 21 8 28 -65 3 -42 6 -106 6 -142 0 -36 3 -89
6 -117 6 -44 9 -51 25 -47 17 5 18 13 14 72 -3 36 -7 126 -10 199 l-4 133 132
65 c144 69 347 154 361 151 4 -2 48 -71 98 -155z m2653 83 c178 -67 492 -199
509 -215 8 -8 -49 -348 -60 -359 -3 -3 -257 95 -356 137 -5 2 -8 -7 -8 -20 0
-22 16 -31 168 -91 92 -37 172 -71 178 -75 8 -5 4 -41 -12 -126 -13 -65 -25
-121 -28 -123 -2 -3 -70 14 -150 36 -172 48 -178 49 -167 19 7 -18 31 -28 156
-60 81 -20 150 -39 152 -42 2 -2 -9 -73 -25 -158 l-30 -154 -102 -180 c-57
-98 -108 -185 -114 -192 -10 -10 -30 -8 -101 7 -102 22 -87 27 22 7 40 -7 70
-10 68 -6 -2 4 12 34 31 66 20 32 49 86 66 118 33 66 78 138 92 147 10 8 -9
12 -333 74 -129 24 -238 48 -242 52 -11 11 22 575 56 963 21 228 24 252 38
247 7 -2 93 -35 192 -72z m775 -324 c52 -42 162 -141 244 -221 l149 -145 -6
-135 c-5 -115 -24 -259 -43 -323 -3 -9 -15 -22 -26 -28 -12 -6 -18 -7 -14 -1
3 5 -31 31 -75 56 l-81 46 6 -48 c11 -75 76 -497 96 -617 10 -60 16 -111 15
-113 -7 -8 -306 -94 -310 -90 -3 3 -8 133 -10 289 -8 409 -26 842 -36 853 -5
6 -10 -2 -11 -20 -1 -16 -5 3 -8 41 -6 53 -2 -394 4 -501 1 -22 -298 -384
-318 -384 -5 0 -3 6 5 13 21 17 101 114 131 159 13 21 53 67 87 104 34 36 61
67 59 69 -7 6 -248 49 -252 44 -7 -7 -196 -339 -196 -343 0 -3 12 -7 28 -9 26
-4 26 -4 2 -5 -57 -3 -54 8 49 190 l99 175 102 534 c56 294 103 540 106 547 5
16 54 -18 204 -137z m-4435 -609 c10 -101 16 -184 14 -186 -2 -2 -50 -31 -107
-66 -57 -34 -100 -66 -95 -70 4 -5 60 -36 123 -69 63 -34 119 -66 124 -71 27
-27 -14 -11 -159 62 -163 82 -329 188 -340 216 -4 10 3 23 17 33 31 24 39 12
8 -13 -45 -36 7 -11 85 42 51 34 75 57 75 70 0 11 -2 20 -5 20 -13 0 -204
-134 -200 -140 3 -4 -3 -14 -13 -21 -15 -13 -16 -12 -3 4 15 20 -1 24 -17 4
-9 -10 14 -31 106 -96 64 -45 122 -86 128 -89 11 -6 40 -153 67 -328 12 -81 8
-78 158 -130 101 -34 180 -66 176 -70 -2 -2 -78 18 -169 45 l-165 48 -132 -89
c-73 -50 -131 -92 -129 -94 10 -9 442 -115 459 -112 11 2 55 43 97 92 42 49
84 92 92 94 17 6 -24 -46 -113 -143 l-65 -70 -263 66 -264 67 -18 48 c-83 219
-145 631 -135 884 l5 111 34 29 c99 86 350 281 464 361 l130 91 7 -174 c3 -95
14 -255 23 -356z m1951 -521 c98 -43 162 -135 149 -218 -3 -24 -8 -43 -10 -43
-2 0 -23 13 -47 29 -70 47 -289 157 -350 177 -32 10 -58 21 -58 25 0 7 78 42
115 52 42 12 151 0 201 -22z m-465 -41 c301 -65 492 -173 896 -506 12 -10 19
-44 9 -44 -3 0 -20 9 -38 19 -55 32 -178 77 -273 100 -154 37 -140 40 -106
-26 34 -67 170 -233 230 -281 l42 -34 82 11 c93 12 207 49 207 66 0 7 -25 36
-56 65 -31 30 -53 58 -50 66 3 7 39 72 80 144 l75 130 -45 11 c-57 15 -77 48
-49 79 22 24 77 27 95 5 14 -16 17 -56 7 -92 -3 -12 -3 -30 0 -42 5 -19 6 -19
27 6 22 25 23 25 54 9 18 -9 32 -21 32 -27 0 -6 9 -1 19 12 16 20 23 22 47 14
16 -6 34 -21 40 -33 6 -13 14 -23 18 -23 28 3 45 -1 49 -13 8 -21 -3 -56 -18
-56 -21 0 -27 -37 -12 -67 13 -24 13 -30 -1 -51 -11 -17 -12 -26 -3 -35 8 -8
11 -6 11 11 0 31 34 47 71 31 29 -12 30 -13 27 -75 l-3 -62 -37 -12 c-21 -6
-38 -16 -38 -22 0 -7 5 -6 14 1 8 7 27 11 43 9 28 -3 28 -3 -12 -23 -23 -12
-46 -33 -54 -50 -8 -16 -18 -31 -23 -33 -12 -5 -10 -50 3 -58 6 -3 8 -16 4
-28 -10 -35 -13 -66 -5 -66 13 0 31 -53 22 -62 -13 -13 10 -85 32 -101 15 -11
16 -17 7 -34 -9 -18 -7 -23 15 -38 15 -9 34 -14 47 -10 40 12 -64 -47 -153
-85 -97 -43 -220 -83 -228 -75 -3 3 1 5 8 5 11 0 11 3 3 11 -7 7 -43 12 -82
12 -39 0 -71 3 -71 7 0 4 -26 5 -57 2 -86 -7 -114 -6 -122 5 -3 5 -27 13 -52
16 -49 7 -163 68 -173 93 -3 8 -11 14 -19 14 -15 0 -44 30 -70 72 -16 26 -16
27 0 21 13 -5 15 -3 8 13 -5 10 -11 49 -13 86 -3 59 -6 67 -25 71 -15 3 -12 5
10 6 47 2 61 10 56 32 -4 15 -14 19 -52 19 -59 1 -108 38 -91 69 37 69 42 60
-121 196 -83 70 -154 124 -157 121 -3 -3 -8 -23 -11 -43 l-7 -38 -64 82 c-134
168 -197 300 -245 507 l-6 29 83 -7 c45 -4 121 -15 169 -26z m1236 -146 c82
-55 104 -116 52 -141 -60 -29 -132 15 -144 86 -5 33 -3 46 11 62 23 25 36 24
81 -7z m101 8 c-2 -4 12 -21 30 -38 34 -33 40 -50 20 -56 -7 -3 3 -5 23 -6 44
-2 89 -18 89 -32 0 -6 -4 -9 -9 -6 -5 3 -11 -4 -15 -17 -3 -12 -19 -38 -35
-57 -24 -28 -32 -33 -42 -22 -7 6 -22 12 -32 12 -10 0 -21 9 -24 20 -3 11 -10
17 -17 13 -6 -4 -5 1 3 10 16 20 25 23 15 5 -4 -7 -3 -9 1 -5 13 11 6 90 -8
102 -10 8 -20 25 -45 78 -2 4 8 7 22 7 14 0 25 -3 24 -8z m372 -122 c0 -5 -12
-10 -26 -10 -31 0 -88 -33 -109 -63 -22 -32 -19 -113 6 -148 11 -16 16 -29 10
-29 -6 0 -17 14 -26 30 -9 17 -22 30 -29 30 -9 0 -12 7 -9 18 2 10 -5 28 -16
41 -11 12 -17 29 -14 37 3 8 2 14 -1 14 -4 0 -11 -10 -16 -22 -6 -15 -9 -17
-9 -7 -1 21 25 73 44 89 25 21 195 38 195 20z m-1880 -82 c53 -90 99 -155 164
-233 34 -42 39 -50 15 -28 -43 40 -64 32 -54 -20 8 -43 -16 -101 -53 -125 -14
-9 -46 -19 -71 -22 l-46 -5 71 -28 71 -28 7 -47 c3 -26 9 -58 12 -72 7 -32
-13 -57 -51 -65 l-30 -6 33 15 c23 11 32 22 32 40 0 30 -16 42 -34 27 -10 -8
-21 -8 -41 -1 -18 7 -31 7 -34 1 -8 -12 -32 -16 -51 -8 -8 3 -28 9 -45 13 -21
5 -25 8 -12 11 9 3 17 11 17 20 0 11 -7 14 -25 11 -33 -7 -32 1 9 40 35 33 61
41 68 21 2 -6 25 -15 51 -19 27 -4 44 -4 40 1 -12 11 -101 39 -125 39 -24 0
-58 -27 -58 -45 0 -7 -7 -18 -15 -25 -12 -10 -15 -9 -15 7 0 27 61 103 82 103
28 0 21 16 -13 30 -57 24 -85 101 -57 153 10 20 10 21 -5 8 -15 -11 -17 -11
-17 2 0 8 -7 20 -16 27 -13 12 -14 10 -3 -14 11 -24 10 -29 -12 -50 -23 -23
-96 -45 -84 -26 6 9 -28 6 -46 -5 -20 -13 -77 6 -109 36 l-32 32 35 32 c19 17
38 42 41 53 6 18 15 22 49 22 36 1 45 5 67 35 14 19 31 33 38 30 7 -2 12 4 12
14 0 40 14 51 96 77 46 14 86 30 90 35 3 5 7 9 8 9 2 0 23 -33 46 -72z m848
-164 c116 -38 235 -97 301 -149 l43 -35 -27 -10 c-51 -19 -224 -35 -237 -22
-9 9 2 12 50 12 34 0 61 3 60 8 -2 4 6 18 18 30 l21 22 29 -21 c18 -13 15 -8
-9 14 -54 49 -185 112 -299 144 -54 15 -100 33 -102 40 -7 16 12 12 152 -33z
m-1440 16 c23 -19 42 -67 42 -106 0 -15 -10 -26 -31 -34 -22 -10 -27 -15 -17
-21 16 -10 -2 -12 -27 -3 -25 10 -55 79 -55 128 0 41 2 45 28 49 15 2 29 5 32
5 3 1 15 -7 28 -18z m-204 -488 l67 -62 -62 -83 c-34 -45 -66 -86 -70 -91 -5
-6 -18 -2 -31 11 -13 11 -53 41 -90 67 l-66 47 23 57 c22 55 25 57 66 63 29 4
49 14 63 32 12 14 24 25 27 24 4 -1 37 -30 73 -65z m729 -51 c73 -69 87 -129
40 -181 -22 -23 -40 -31 -83 -36 -30 -4 -52 -4 -48 0 5 7 25 12 50 15 3 1 20
13 37 27 56 47 33 125 -55 187 -45 32 -97 46 -165 47 -37 0 -52 -6 -79 -30
-39 -35 -40 -35 -40 -15 0 8 13 29 28 46 24 27 37 33 93 38 60 6 68 4 124 -28
33 -18 77 -50 98 -70z m-1075 -65 c87 -44 185 -114 294 -209 88 -78 232 -236
223 -245 -9 -10 -222 -68 -234 -64 -15 5 -14 19 2 19 21 0 143 43 163 57 17
13 16 16 -18 57 -61 75 -166 179 -180 179 -7 0 -43 -32 -80 -72 -48 -53 -70
-70 -78 -62 -8 8 -1 22 27 52 80 86 100 113 92 117 -4 3 -36 -27 -70 -67 -34
-40 -67 -76 -72 -79 -5 -4 5 -17 22 -30 17 -12 31 -27 31 -31 0 -10 -93 59
-195 146 -86 72 -85 71 -58 57 12 -6 25 -16 28 -21 12 -19 25 -10 25 19 0 48
31 171 44 171 6 0 -2 9 -19 20 -46 30 -22 24 53 -14z m472 9 c7 -8 42 -36 79
-62 36 -25 69 -49 74 -53 4 -3 1 -23 -8 -43 -8 -20 -12 -43 -9 -51 4 -11 -16
-26 -73 -55 l-79 -39 -73 68 -73 69 68 90 c38 49 72 90 75 91 4 0 12 -7 19
-15z m-593 -243 l32 -28 -24 -49 c-48 -94 -28 -199 47 -245 73 -44 148 -34
219 29 l44 39 39 -32 38 -32 -61 -56 c-127 -118 -277 -117 -398 1 -80 77 -101
163 -64 262 22 57 74 139 89 139 4 -1 21 -13 39 -28z"/>
<path d="M4123 4710 c-107 -22 -213 -101 -258 -191 -72 -140 -19 -296 123
-366 51 -25 67 -28 157 -28 93 1 104 3 163 33 163 84 239 225 197 367 -21 73
-88 144 -160 169 -60 21 -165 28 -222 16z m179 -20 c64 -18 130 -72 161 -131
25 -47 28 -62 24 -114 -8 -114 -79 -209 -196 -264 -49 -23 -69 -26 -156 -26
-112 0 -153 15 -211 77 -49 51 -64 90 -64 160 0 130 88 238 239 293 44 16 152
19 203 5z"/>
<path d="M4106 4499 c5 -8 -2 -10 -22 -6 -25 4 -26 3 -11 -8 36 -26 15 -55
-39 -55 -32 0 -41 25 -19 50 22 24 6 26 -35 5 -40 -20 -60 -53 -60 -95 0 -67
56 -110 142 -110 145 1 229 144 123 210 -35 22 -91 28 -79 9z"/>
<path d="M1133 4630 c-58 -23 -71 -116 -21 -153 23 -17 31 -18 57 -8 41 17 61
42 68 84 4 29 1 40 -20 61 -27 27 -47 31 -84 16z"/>
<path d="M563 4350 c-27 -16 -33 -26 -33 -55 0 -65 58 -97 132 -74 38 12 43
18 46 46 4 43 -13 72 -53 89 -45 18 -54 18 -92 -6z"/>
<path d="M1790 4577 c0 -35 -6 -49 -30 -72 l-31 -29 35 -18 c23 -12 38 -29 46
-53 6 -19 16 -35 20 -35 5 0 20 18 32 40 22 37 27 40 81 46 31 4 57 10 57 13
0 4 -13 20 -30 36 -24 23 -30 37 -30 72 0 24 -2 43 -5 43 -2 0 -20 -7 -39 -17
-32 -15 -37 -15 -60 0 -38 25 -46 21 -46 -26z m48 8 c19 -14 24 -14 51 0 40
20 41 20 41 -21 0 -20 9 -49 21 -65 l20 -29 -48 0 c-46 0 -50 -2 -70 -37 l-21
-36 -16 31 c-9 17 -25 33 -36 37 -25 8 -25 17 0 40 13 12 20 31 20 57 0 42 5
45 38 23z"/>
<path d="M3275 3864 c-14 -14 -14 -19 -2 -38 37 -56 135 -94 262 -103 63 -4
84 -2 100 10 16 13 18 19 9 34 -12 19 -54 31 -54 15 0 -5 -9 -12 -20 -15 -23
-6 -26 3 -8 21 9 9 9 12 1 12 -7 0 -15 -5 -18 -11 -4 -6 -19 -7 -38 -3 -18 4
-39 7 -47 8 -15 1 -70 48 -70 60 0 3 8 6 18 6 14 0 15 2 2 10 -25 16 -117 12
-135 -6z"/>
<path d="M3240 2152 c0 -56 4 -82 9 -73 7 11 15 4 32 -32 12 -25 29 -49 37
-52 15 -6 284 -21 558 -31 l170 -7 69 89 c38 49 84 107 102 128 18 22 33 46
33 53 0 11 -89 13 -505 13 l-505 -1 0 -87z"/>
<path d="M1633 2013 l-72 -26 52 -41 c28 -22 81 -68 117 -101 69 -65 133 -115
147 -115 17 0 203 54 203 59 0 3 -41 49 -90 101 -73 77 -89 90 -87 70 2 -25 1
-25 -88 -28 -89 -3 -91 -2 -138 31 l-48 34 53 21 c75 29 38 25 -49 -5z"/>
<path d="M1332 1882 l-113 -46 98 -62 c54 -34 124 -78 156 -99 l57 -37 93 21
c132 31 133 32 67 93 -89 82 -213 178 -230 177 -8 0 -66 -21 -128 -47z"/>
<path d="M5290 2775 c0 -46 3 -56 14 -52 12 5 16 -5 19 -41 3 -46 3 -46 5 11
1 31 4 57 7 57 3 0 58 -35 123 -78 154 -103 142 -97 142 -69 0 19 -27 41 -147
123 -81 54 -151 101 -155 102 -4 2 -8 -22 -8 -53z"/>
</g>
</svg>
